<?xml version="1.0" encoding="UTF-8" standalone="no"?>
<!DOCTYPE svg PUBLIC "-//W3C//DTD SVG 1.1//EN"
 "http://www.w3.org/Graphics/SVG/1.1/DTD/svg11.dtd">
<!-- Generated by graphviz version 2.40.1 (20161225.0304)
 -->
<!-- Title: libmutt Pages: 1 -->
<svg width="646pt" height="378pt"
 viewBox="0.00 0.00 645.50 378.00" xmlns="http://www.w3.org/2000/svg" xmlns:xlink="http://www.w3.org/1999/xlink">
<g id="graph0" class="graph" transform="scale(1 1) rotate(0) translate(4 374)">
<title>libmutt</title>
<polygon fill="#ffffff" stroke="transparent" points="-4,4 -4,-374 641.5,-374 641.5,4 -4,4"/>
<!-- base64 -->
<g id="node1" class="node">
<title>base64</title>
<path fill="none" stroke="#000000" stroke-width="1.5" d="M7,-.5C7,-.5 52,-.5 52,-.5 55.5,-.5 59,-4 59,-7.5 59,-7.5 59,-14.5 59,-14.5 59,-18 55.5,-21.5 52,-21.5 52,-21.5 7,-21.5 7,-21.5 3.5,-21.5 0,-18 0,-14.5 0,-14.5 0,-7.5 0,-7.5 0,-4 3.5,-.5 7,-.5"/>
<text text-anchor="middle" x="29.5" y="-7.9" font-family="Times,serif" font-size="12.00" fill="#000000">base64</text>
</g>
<!-- debug -->
<g id="node2" class="node">
<title>debug</title>
<path fill="none" stroke="#000000" stroke-width="1.5" d="M236.5,-.5C236.5,-.5 276.5,-.5 276.5,-.5 280,-.5 283.5,-4 283.5,-7.5 283.5,-7.5 283.5,-14.5 283.5,-14.5 283.5,-18 280,-21.5 276.5,-21.5 276.5,-21.5 236.5,-21.5 236.5,-21.5 233,-21.5 229.5,-18 229.5,-14.5 229.5,-14.5 229.5,-7.5 229.5,-7.5 229.5,-4 233,-.5 236.5,-.5"/>
<text text-anchor="middle" x="256.5" y="-7.9" font-family="Times,serif" font-size="12.00" fill="#000000">debug</text>
</g>
<!-- md5 -->
<g id="node3" class="node">
<title>md5</title>
<path fill="none" stroke="#000000" stroke-width="1.5" d="M454.5,-.5C454.5,-.5 494.5,-.5 494.5,-.5 498,-.5 501.5,-4 501.5,-7.5 501.5,-7.5 501.5,-14.5 501.5,-14.5 501.5,-18 498,-21.5 494.5,-21.5 494.5,-21.5 454.5,-21.5 454.5,-21.5 451,-21.5 447.5,-18 447.5,-14.5 447.5,-14.5 447.5,-7.5 447.5,-7.5 447.5,-4 451,-.5 454.5,-.5"/>
<text text-anchor="middle" x="474.5" y="-7.9" font-family="Times,serif" font-size="12.00" fill="#000000">md5</text>
</g>
<!-- sha1 -->
<g id="node4" class="node">
<title>sha1</title>
<path fill="none" stroke="#000000" stroke-width="1.5" d="M522.5,-.5C522.5,-.5 562.5,-.5 562.5,-.5 566,-.5 569.5,-4 569.5,-7.5 569.5,-7.5 569.5,-14.5 569.5,-14.5 569.5,-18 566,-21.5 562.5,-21.5 562.5,-21.5 522.5,-21.5 522.5,-21.5 519,-21.5 515.5,-18 515.5,-14.5 515.5,-14.5 515.5,-7.5 515.5,-7.5 515.5,-4 519,-.5 522.5,-.5"/>
<text text-anchor="middle" x="542.5" y="-7.9" font-family="Times,serif" font-size="12.00" fill="#000000">sha1</text>
</g>
<!-- signal -->
<g id="node5" class="node">
<title>signal</title>
<path fill="none" stroke="#000000" stroke-width="1.5" d="M590.5,-.5C590.5,-.5 630.5,-.5 630.5,-.5 634,-.5 637.5,-4 637.5,-7.5 637.5,-7.5 637.5,-14.5 637.5,-14.5 637.5,-18 634,-21.5 630.5,-21.5 630.5,-21.5 590.5,-21.5 590.5,-21.5 587,-21.5 583.5,-18 583.5,-14.5 583.5,-14.5 583.5,-7.5 583.5,-7.5 583.5,-4 587,-.5 590.5,-.5"/>
<text text-anchor="middle" x="610.5" y="-7.9" font-family="Times,serif" font-size="12.00" fill="#000000">signal</text>
</g>
<!-- buffer -->
<g id="node6" class="node">
<title>buffer</title>
<path fill="none" stroke="#000000" stroke-width="1.5" d="M58.5,-174.5C58.5,-174.5 98.5,-174.5 98.5,-174.5 102,-174.5 105.5,-178 105.5,-181.5 105.5,-181.5 105.5,-188.5 105.5,-188.5 105.5,-192 102,-195.5 98.5,-195.5 98.5,-195.5 58.5,-195.5 58.5,-195.5 55,-195.5 51.5,-192 51.5,-188.5 51.5,-188.5 51.5,-181.5 51.5,-181.5 51.5,-178 55,-174.5 58.5,-174.5"/>
<text text-anchor="middle" x="78.5" y="-181.9" font-family="Times,serif" font-size="12.00" fill="#000000">buffer</text>
</g>
<!-- string -->
<g id="node7" class="node">
<title>string</title>
<path fill="none" stroke="#000000" stroke-width="1.5" d="M270.5,-116.5C270.5,-116.5 310.5,-116.5 310.5,-116.5 314,-116.5 317.5,-120 317.5,-123.5 317.5,-123.5 317.5,-130.5 317.5,-130.5 317.5,-134 314,-137.5 310.5,-137.5 310.5,-137.5 270.5,-137.5 270.5,-137.5 267,-137.5 263.5,-134 263.5,-130.5 263.5,-130.5 263.5,-123.5 263.5,-123.5 263.5,-120 267,-116.5 270.5,-116.5"/>
<text text-anchor="middle" x="290.5" y="-123.9" font-family="Times,serif" font-size="12.00" fill="#000000">string</text>
</g>
<!-- buffer&#45;&gt;string -->
<g id="edge1" class="edge">
<title>buffer&#45;&gt;string</title>
<path fill="none" stroke="#000000" d="M105.5539,-176.0997C107.8983,-175.3733 110.2379,-174.664 112.5,-174 163.0684,-159.1557 222.3411,-143.9351 258.1257,-134.9813"/>
<polygon fill="#000000" stroke="#000000" points="258.8041,-136.6158 263.2312,-133.7066 257.9562,-133.22 258.8041,-136.6158"/>
</g>
<!-- string&#45;&gt;debug -->
<g id="edge16" class="edge">
<title>string&#45;&gt;debug</title>
<path fill="none" stroke="#000000" d="M287.3623,-116.2949C281.3406,-95.7502 268.1387,-50.7087 261.1125,-26.7369"/>
<polygon fill="#000000" stroke="#000000" points="262.7159,-25.9851 259.6301,-21.6792 259.3572,-26.9696 262.7159,-25.9851"/>
</g>
<!-- memory -->
<g id="node16" class="node">
<title>memory</title>
<path fill="none" stroke="#000000" stroke-width="1.5" d="M298.5,-58.5C298.5,-58.5 350.5,-58.5 350.5,-58.5 354,-58.5 357.5,-62 357.5,-65.5 357.5,-65.5 357.5,-72.5 357.5,-72.5 357.5,-76 354,-79.5 350.5,-79.5 350.5,-79.5 298.5,-79.5 298.5,-79.5 295,-79.5 291.5,-76 291.5,-72.5 291.5,-72.5 291.5,-65.5 291.5,-65.5 291.5,-62 295,-58.5 298.5,-58.5"/>
<text text-anchor="middle" x="324.5" y="-65.9" font-family="Times,serif" font-size="12.00" fill="#000000">memory</text>
</g>
<!-- string&#45;&gt;memory -->
<g id="edge17" class="edge">
<title>string&#45;&gt;memory</title>
<path fill="none" stroke="#000000" d="M296.7361,-116.3619C302.0561,-107.2867 309.7651,-94.1361 315.7107,-83.9936"/>
<polygon fill="#000000" stroke="#000000" points="317.2845,-84.7692 318.3034,-79.5707 314.265,-82.9991 317.2845,-84.7692"/>
</g>
<!-- charset -->
<g id="node8" class="node">
<title>charset</title>
<path fill="none" stroke="#000000" stroke-width="1.5" d="M126.5,-174.5C126.5,-174.5 174.5,-174.5 174.5,-174.5 178,-174.5 181.5,-178 181.5,-181.5 181.5,-181.5 181.5,-188.5 181.5,-188.5 181.5,-192 178,-195.5 174.5,-195.5 174.5,-195.5 126.5,-195.5 126.5,-195.5 123,-195.5 119.5,-192 119.5,-188.5 119.5,-188.5 119.5,-181.5 119.5,-181.5 119.5,-178 123,-174.5 126.5,-174.5"/>
<text text-anchor="middle" x="150.5" y="-181.9" font-family="Times,serif" font-size="12.00" fill="#000000">charset</text>
</g>
<!-- charset&#45;&gt;string -->
<g id="edge2" class="edge">
<title>charset&#45;&gt;string</title>
<path fill="none" stroke="#000000" d="M175.8529,-174.4966C199.4921,-164.7033 234.7901,-150.0798 259.9683,-139.6488"/>
<polygon fill="#000000" stroke="#000000" points="260.9131,-141.1517 264.8626,-137.6212 259.5735,-137.9182 260.9131,-141.1517"/>
</g>
<!-- date -->
<g id="node9" class="node">
<title>date</title>
<path fill="none" stroke="#000000" stroke-width="1.5" d="M202.5,-174.5C202.5,-174.5 242.5,-174.5 242.5,-174.5 246,-174.5 249.5,-178 249.5,-181.5 249.5,-181.5 249.5,-188.5 249.5,-188.5 249.5,-192 246,-195.5 242.5,-195.5 242.5,-195.5 202.5,-195.5 202.5,-195.5 199,-195.5 195.5,-192 195.5,-188.5 195.5,-188.5 195.5,-181.5 195.5,-181.5 195.5,-178 199,-174.5 202.5,-174.5"/>
<text text-anchor="middle" x="222.5" y="-181.9" font-family="Times,serif" font-size="12.00" fill="#000000">date</text>
</g>
<!-- date&#45;&gt;string -->
<g id="edge3" class="edge">
<title>date&#45;&gt;string</title>
<path fill="none" stroke="#000000" d="M234.9722,-174.3619C245.9955,-164.9597 262.1475,-151.183 274.1927,-140.9092"/>
<polygon fill="#000000" stroke="#000000" points="275.4383,-142.1469 278.1068,-137.5707 273.167,-139.484 275.4383,-142.1469"/>
</g>
<!-- file -->
<g id="node10" class="node">
<title>file</title>
<path fill="none" stroke="#000000" stroke-width="1.5" d="M270.5,-174.5C270.5,-174.5 310.5,-174.5 310.5,-174.5 314,-174.5 317.5,-178 317.5,-181.5 317.5,-181.5 317.5,-188.5 317.5,-188.5 317.5,-192 314,-195.5 310.5,-195.5 310.5,-195.5 270.5,-195.5 270.5,-195.5 267,-195.5 263.5,-192 263.5,-188.5 263.5,-188.5 263.5,-181.5 263.5,-181.5 263.5,-178 267,-174.5 270.5,-174.5"/>
<text text-anchor="middle" x="290.5" y="-181.9" font-family="Times,serif" font-size="12.00" fill="#000000">file</text>
</g>
<!-- file&#45;&gt;string -->
<g id="edge4" class="edge">
<title>file&#45;&gt;string</title>
<path fill="none" stroke="#000000" d="M290.5,-174.3619C290.5,-165.532 290.5,-152.844 290.5,-142.8224"/>
<polygon fill="#000000" stroke="#000000" points="292.2501,-142.5706 290.5,-137.5707 288.7501,-142.5707 292.2501,-142.5706"/>
</g>
<!-- hash -->
<g id="node11" class="node">
<title>hash</title>
<path fill="none" stroke="#000000" stroke-width="1.5" d="M338.5,-174.5C338.5,-174.5 378.5,-174.5 378.5,-174.5 382,-174.5 385.5,-178 385.5,-181.5 385.5,-181.5 385.5,-188.5 385.5,-188.5 385.5,-192 382,-195.5 378.5,-195.5 378.5,-195.5 338.5,-195.5 338.5,-195.5 335,-195.5 331.5,-192 331.5,-188.5 331.5,-188.5 331.5,-181.5 331.5,-181.5 331.5,-178 335,-174.5 338.5,-174.5"/>
<text text-anchor="middle" x="358.5" y="-181.9" font-family="Times,serif" font-size="12.00" fill="#000000">hash</text>
</g>
<!-- hash&#45;&gt;string -->
<g id="edge5" class="edge">
<title>hash&#45;&gt;string</title>
<path fill="none" stroke="#000000" d="M346.0278,-174.3619C335.0045,-164.9597 318.8525,-151.183 306.8073,-140.9092"/>
<polygon fill="#000000" stroke="#000000" points="307.833,-139.484 302.8932,-137.5707 305.5617,-142.1469 307.833,-139.484"/>
</g>
<!-- idna -->
<g id="node12" class="node">
<title>idna</title>
<path fill="none" stroke="#000000" stroke-width="1.5" d="M130.5,-232.5C130.5,-232.5 170.5,-232.5 170.5,-232.5 174,-232.5 177.5,-236 177.5,-239.5 177.5,-239.5 177.5,-246.5 177.5,-246.5 177.5,-250 174,-253.5 170.5,-253.5 170.5,-253.5 130.5,-253.5 130.5,-253.5 127,-253.5 123.5,-250 123.5,-246.5 123.5,-246.5 123.5,-239.5 123.5,-239.5 123.5,-236 127,-232.5 130.5,-232.5"/>
<text text-anchor="middle" x="150.5" y="-239.9" font-family="Times,serif" font-size="12.00" fill="#000000">idna</text>
</g>
<!-- idna&#45;&gt;charset -->
<g id="edge6" class="edge">
<title>idna&#45;&gt;charset</title>
<path fill="none" stroke="#000000" d="M150.5,-232.3619C150.5,-223.532 150.5,-210.844 150.5,-200.8224"/>
<polygon fill="#000000" stroke="#000000" points="152.2501,-200.5706 150.5,-195.5707 148.7501,-200.5707 152.2501,-200.5706"/>
</g>
<!-- list -->
<g id="node13" class="node">
<title>list</title>
<path fill="none" stroke="#000000" stroke-width="1.5" d="M406.5,-174.5C406.5,-174.5 446.5,-174.5 446.5,-174.5 450,-174.5 453.5,-178 453.5,-181.5 453.5,-181.5 453.5,-188.5 453.5,-188.5 453.5,-192 450,-195.5 446.5,-195.5 446.5,-195.5 406.5,-195.5 406.5,-195.5 403,-195.5 399.5,-192 399.5,-188.5 399.5,-188.5 399.5,-181.5 399.5,-181.5 399.5,-178 403,-174.5 406.5,-174.5"/>
<text text-anchor="middle" x="426.5" y="-181.9" font-family="Times,serif" font-size="12.00" fill="#000000">list</text>
</g>
<!-- list&#45;&gt;string -->
<g id="edge7" class="edge">
<title>list&#45;&gt;string</title>
<path fill="none" stroke="#000000" d="M401.8714,-174.4966C378.9077,-164.7033 344.6182,-150.0798 320.1594,-139.6488"/>
<polygon fill="#000000" stroke="#000000" points="320.6907,-137.973 315.4049,-137.6212 319.3176,-141.1924 320.6907,-137.973"/>
</g>
<!-- mapping -->
<g id="node14" class="node">
<title>mapping</title>
<path fill="none" stroke="#000000" stroke-width="1.5" d="M475,-174.5C475,-174.5 530,-174.5 530,-174.5 533.5,-174.5 537,-178 537,-181.5 537,-181.5 537,-188.5 537,-188.5 537,-192 533.5,-195.5 530,-195.5 530,-195.5 475,-195.5 475,-195.5 471.5,-195.5 468,-192 468,-188.5 468,-188.5 468,-181.5 468,-181.5 468,-178 471.5,-174.5 475,-174.5"/>
<text text-anchor="middle" x="502.5" y="-181.9" font-family="Times,serif" font-size="12.00" fill="#000000">mapping</text>
</g>
<!-- mapping&#45;&gt;string -->
<g id="edge8" class="edge">
<title>mapping&#45;&gt;string</title>
<path fill="none" stroke="#000000" d="M467.9667,-175.5522C427.7676,-164.5543 361.9004,-146.5341 322.7188,-135.8146"/>
<polygon fill="#000000" stroke="#000000" points="322.892,-134.0477 317.6074,-134.4162 321.9684,-137.4237 322.892,-134.0477"/>
</g>
<!-- mbyte -->
<g id="node15" class="node">
<title>mbyte</title>
<path fill="none" stroke="#000000" stroke-width="1.5" d="M58.5,-232.5C58.5,-232.5 98.5,-232.5 98.5,-232.5 102,-232.5 105.5,-236 105.5,-239.5 105.5,-239.5 105.5,-246.5 105.5,-246.5 105.5,-250 102,-253.5 98.5,-253.5 98.5,-253.5 58.5,-253.5 58.5,-253.5 55,-253.5 51.5,-250 51.5,-246.5 51.5,-246.5 51.5,-239.5 51.5,-239.5 51.5,-236 55,-232.5 58.5,-232.5"/>
<text text-anchor="middle" x="78.5" y="-239.9" font-family="Times,serif" font-size="12.00" fill="#000000">mbyte</text>
</g>
<!-- mbyte&#45;&gt;buffer -->
<g id="edge9" class="edge">
<title>mbyte&#45;&gt;buffer</title>
<path fill="none" stroke="#000000" d="M78.5,-232.3619C78.5,-223.532 78.5,-210.844 78.5,-200.8224"/>
<polygon fill="#000000" stroke="#000000" points="80.2501,-200.5706 78.5,-195.5707 76.7501,-200.5707 80.2501,-200.5706"/>
</g>
<!-- mbyte&#45;&gt;charset -->
<g id="edge10" class="edge">
<title>mbyte&#45;&gt;charset</title>
<path fill="none" stroke="#000000" d="M91.7059,-232.3619C103.3776,-222.9597 120.4797,-209.183 133.2335,-198.9092"/>
<polygon fill="#000000" stroke="#000000" points="134.5819,-200.0702 137.3778,-195.5707 132.3862,-197.3445 134.5819,-200.0702"/>
</g>
<!-- exit -->
<g id="node17" class="node">
<title>exit</title>
<path fill="none" stroke="#000000" stroke-width="1.5" d="M304.5,-.5C304.5,-.5 344.5,-.5 344.5,-.5 348,-.5 351.5,-4 351.5,-7.5 351.5,-7.5 351.5,-14.5 351.5,-14.5 351.5,-18 348,-21.5 344.5,-21.5 344.5,-21.5 304.5,-21.5 304.5,-21.5 301,-21.5 297.5,-18 297.5,-14.5 297.5,-14.5 297.5,-7.5 297.5,-7.5 297.5,-4 301,-.5 304.5,-.5"/>
<text text-anchor="middle" x="324.5" y="-7.9" font-family="Times,serif" font-size="12.00" fill="#000000">exit</text>
</g>
<!-- memory&#45;&gt;exit -->
<g id="edge11" class="edge">
<title>memory&#45;&gt;exit</title>
<path fill="none" stroke="#000000" d="M324.5,-58.3619C324.5,-49.532 324.5,-36.844 324.5,-26.8224"/>
<polygon fill="#000000" stroke="#000000" points="326.2501,-26.5706 324.5,-21.5707 322.7501,-26.5707 326.2501,-26.5706"/>
</g>
<!-- message -->
<g id="node18" class="node">
<title>message</title>
<path fill="none" stroke="#000000" stroke-width="1.5" d="M372.5,-.5C372.5,-.5 426.5,-.5 426.5,-.5 430,-.5 433.5,-4 433.5,-7.5 433.5,-7.5 433.5,-14.5 433.5,-14.5 433.5,-18 430,-21.5 426.5,-21.5 426.5,-21.5 372.5,-21.5 372.5,-21.5 369,-21.5 365.5,-18 365.5,-14.5 365.5,-14.5 365.5,-7.5 365.5,-7.5 365.5,-4 369,-.5 372.5,-.5"/>
<text text-anchor="middle" x="399.5" y="-7.9" font-family="Times,serif" font-size="12.00" fill="#000000">message</text>
</g>
<!-- memory&#45;&gt;message -->
<g id="edge12" class="edge">
<title>memory&#45;&gt;message</title>
<path fill="none" stroke="#000000" d="M338.2562,-58.3619C350.5199,-48.8779 368.5391,-34.9431 381.8596,-24.6419"/>
<polygon fill="#000000" stroke="#000000" points="382.9463,-26.0138 385.8311,-21.5707 380.8052,-23.2451 382.9463,-26.0138"/>
</g>
<!-- regex -->
<g id="node19" class="node">
<title>regex</title>
<path fill="none" stroke="#000000" stroke-width="1.5" d="M58.5,-290.5C58.5,-290.5 98.5,-290.5 98.5,-290.5 102,-290.5 105.5,-294 105.5,-297.5 105.5,-297.5 105.5,-304.5 105.5,-304.5 105.5,-308 102,-311.5 98.5,-311.5 98.5,-311.5 58.5,-311.5 58.5,-311.5 55,-311.5 51.5,-308 51.5,-304.5 51.5,-304.5 51.5,-297.5 51.5,-297.5 51.5,-294 55,-290.5 58.5,-290.5"/>
<text text-anchor="middle" x="78.5" y="-297.9" font-family="Times,serif" font-size="12.00" fill="#000000">regex</text>
</g>
<!-- regex&#45;&gt;mbyte -->
<g id="edge13" class="edge">
<title>regex&#45;&gt;mbyte</title>
<path fill="none" stroke="#000000" d="M78.5,-290.3619C78.5,-281.532 78.5,-268.844 78.5,-258.8224"/>
<polygon fill="#000000" stroke="#000000" points="80.2501,-258.5706 78.5,-253.5707 76.7501,-258.5707 80.2501,-258.5706"/>
</g>
<!-- rfc2047 -->
<g id="node20" class="node">
<title>rfc2047</title>
<path fill="none" stroke="#000000" stroke-width="1.5" d="M28.5,-348.5C28.5,-348.5 78.5,-348.5 78.5,-348.5 82,-348.5 85.5,-352 85.5,-355.5 85.5,-355.5 85.5,-362.5 85.5,-362.5 85.5,-366 82,-369.5 78.5,-369.5 78.5,-369.5 28.5,-369.5 28.5,-369.5 25,-369.5 21.5,-366 21.5,-362.5 21.5,-362.5 21.5,-355.5 21.5,-355.5 21.5,-352 25,-348.5 28.5,-348.5"/>
<text text-anchor="middle" x="53.5" y="-355.9" font-family="Times,serif" font-size="12.00" fill="#000000">rfc2047</text>
</g>
<!-- rfc2047&#45;&gt;base64 -->
<g id="edge14" class="edge">
<title>rfc2047&#45;&gt;base64</title>
<path fill="none" stroke="#000000" d="M49.75,-348.2785C43,-327.9928 29.5,-282.4856 29.5,-243 29.5,-243 29.5,-243 29.5,-127 29.5,-91.1685 29.5,-49.1112 29.5,-26.79"/>
<polygon fill="#000000" stroke="#000000" points="31.2501,-26.5561 29.5,-21.5561 27.7501,-26.5561 31.2501,-26.5561"/>
</g>
<!-- rfc2047&#45;&gt;regex -->
<g id="edge15" class="edge">
<title>rfc2047&#45;&gt;regex</title>
<path fill="none" stroke="#000000" d="M58.0854,-348.3619C61.9619,-339.3685 67.5635,-326.3727 71.9188,-316.2684"/>
<polygon fill="#000000" stroke="#000000" points="73.5715,-316.855 73.9437,-311.5707 70.3574,-315.4696 73.5715,-316.855"/>
</g>
</g>
</svg>
